<mxfile host="app.diagrams.net" modified="2021-04-18T07:39:21.046Z" agent="5.0 (Macintosh; Intel Mac OS X 11_2_3) AppleWebKit/537.36 (KHTML, like Gecko) Chrome/89.0.4389.128 Safari/537.36" etag="1wtpIkQflThkS6aGB1PL" version="14.6.1" type="github">
  <diagram id="XwHNrx_ZssR2MpgmqnIo" name="Page-1">
    <mxGraphModel dx="946" dy="1632" grid="1" gridSize="10" guides="1" tooltips="1" connect="1" arrows="1" fold="1" page="1" pageScale="1" pageWidth="850" pageHeight="1100" math="0" shadow="0">
      <root>
        <mxCell id="0" />
        <mxCell id="1" parent="0" />
        <mxCell id="V2IuafMHqfVMnWYM7nra-3" value="Actor" style="shape=umlActor;verticalLabelPosition=bottom;verticalAlign=top;html=1;outlineConnect=0;" vertex="1" parent="1">
          <mxGeometry x="40" y="170" width="30" height="60" as="geometry" />
        </mxCell>
        <mxCell id="V2IuafMHqfVMnWYM7nra-4" value="Request" style="endArrow=classic;html=1;" edge="1" parent="1">
          <mxGeometry width="50" height="50" relative="1" as="geometry">
            <mxPoint x="70" y="200" as="sourcePoint" />
            <mxPoint x="200" y="200" as="targetPoint" />
          </mxGeometry>
        </mxCell>
        <mxCell id="V2IuafMHqfVMnWYM7nra-5" value="" style="whiteSpace=wrap;html=1;aspect=fixed;fillColor=none;" vertex="1" parent="1">
          <mxGeometry x="200" y="-60" width="530" height="530" as="geometry" />
        </mxCell>
        <mxCell id="V2IuafMHqfVMnWYM7nra-6" value="Response" style="endArrow=classic;html=1;entryX=1;entryY=1;entryDx=0;entryDy=0;entryPerimeter=0;" edge="1" parent="1">
          <mxGeometry width="50" height="50" relative="1" as="geometry">
            <mxPoint x="200" y="229" as="sourcePoint" />
            <mxPoint x="70" y="229" as="targetPoint" />
          </mxGeometry>
        </mxCell>
        <mxCell id="V2IuafMHqfVMnWYM7nra-7" value="Controller" style="whiteSpace=wrap;html=1;aspect=fixed;fillColor=none;" vertex="1" parent="1">
          <mxGeometry x="220" y="190" width="60" height="60" as="geometry" />
        </mxCell>
        <mxCell id="V2IuafMHqfVMnWYM7nra-8" value="Order service&lt;br&gt;(handle request, response like API)" style="whiteSpace=wrap;html=1;aspect=fixed;fillColor=none;" vertex="1" parent="1">
          <mxGeometry x="300" y="140" width="90" height="90" as="geometry" />
        </mxCell>
        <mxCell id="V2IuafMHqfVMnWYM7nra-9" value="User Service&lt;br&gt;(Handle request response like API)" style="whiteSpace=wrap;html=1;aspect=fixed;fillColor=none;" vertex="1" parent="1">
          <mxGeometry x="300" y="250" width="90" height="90" as="geometry" />
        </mxCell>
        <mxCell id="V2IuafMHqfVMnWYM7nra-10" value="Handler: Call Repository, Web service" style="whiteSpace=wrap;html=1;aspect=fixed;fillColor=none;" vertex="1" parent="1">
          <mxGeometry x="490" y="145" width="80" height="80" as="geometry" />
        </mxCell>
        <mxCell id="V2IuafMHqfVMnWYM7nra-11" value="Mediator send" style="endArrow=classic;html=1;exitX=1;exitY=0.5;exitDx=0;exitDy=0;entryX=0;entryY=0.5;entryDx=0;entryDy=0;" edge="1" parent="1" source="V2IuafMHqfVMnWYM7nra-8" target="V2IuafMHqfVMnWYM7nra-10">
          <mxGeometry width="50" height="50" relative="1" as="geometry">
            <mxPoint x="400" y="210" as="sourcePoint" />
            <mxPoint x="450" y="160" as="targetPoint" />
          </mxGeometry>
        </mxCell>
        <mxCell id="V2IuafMHqfVMnWYM7nra-12" value="Mediator send" style="endArrow=classic;html=1;entryX=0;entryY=0.5;entryDx=0;entryDy=0;" edge="1" parent="1" target="V2IuafMHqfVMnWYM7nra-13">
          <mxGeometry width="50" height="50" relative="1" as="geometry">
            <mxPoint x="392" y="284" as="sourcePoint" />
            <mxPoint x="500" y="195" as="targetPoint" />
          </mxGeometry>
        </mxCell>
        <mxCell id="V2IuafMHqfVMnWYM7nra-13" value="Handler: call repository, web service" style="whiteSpace=wrap;html=1;aspect=fixed;fillColor=none;" vertex="1" parent="1">
          <mxGeometry x="490" y="243" width="87" height="87" as="geometry" />
        </mxCell>
        <mxCell id="V2IuafMHqfVMnWYM7nra-14" value="&amp;nbsp;API" style="whiteSpace=wrap;html=1;aspect=fixed;fillColor=none;" vertex="1" parent="1">
          <mxGeometry x="220" y="390" width="60" height="60" as="geometry" />
        </mxCell>
        <mxCell id="V2IuafMHqfVMnWYM7nra-15" value="Mediator send" style="endArrow=classic;html=1;exitX=1;exitY=0.5;exitDx=0;exitDy=0;entryX=0;entryY=0.75;entryDx=0;entryDy=0;" edge="1" parent="1" source="V2IuafMHqfVMnWYM7nra-14" target="V2IuafMHqfVMnWYM7nra-13">
          <mxGeometry width="50" height="50" relative="1" as="geometry">
            <mxPoint x="400" y="240" as="sourcePoint" />
            <mxPoint x="450" y="190" as="targetPoint" />
            <Array as="points">
              <mxPoint x="440" y="420" />
              <mxPoint x="440" y="308" />
            </Array>
          </mxGeometry>
        </mxCell>
      </root>
    </mxGraphModel>
  </diagram>
</mxfile>
